<svg xmlns="http://www.w3.org/2000/svg" viewBox="0 0 64 64" width="64" height="64">
  <!-- Ómnibus -->
  <rect x="10" y="32" width="44" height="18" rx="3" fill="#2553eb"/>
  <rect x="10" y="44" width="44" height="6" fill="#ffd700"/>
  <circle cx="20" cy="52" r="4" fill="#146321"/>
  <circle cx="44" cy="52" r="4" fill="#146321"/>
  <!-- Ventanas -->
  <rect x="15" y="36" width="8" height="6" rx="1" fill="#DBEAFE"/>
  <rect x="26" y="36" width="8" height="6" rx="1" fill="#DBEAFE"/>
  <rect x="37" y="36" width="8" height="6" rx="1" fill="#DBEAFE"/>
  <!-- Mariquita -->
  <ellipse cx="32" cy="22" rx="10" ry="8" fill="#ff0000"/>
  <circle cx="29" cy="20" r="2" fill="#111"/>
  <circle cx="35" cy="20" r="2" fill="#111"/>
  <circle cx="32" cy="24" r="2" fill="#111"/>
  <circle cx="32" cy="14" r="4" fill="#111"/>
  <!-- Antenas -->
  <line x1="30" y1="11" x2="27" y2="7" stroke="#111" stroke-width="1.5" stroke-linecap="round"/>
  <line x1="34" y1="11" x2="37" y2="7" stroke="#111" stroke-width="1.5" stroke-linecap="round"/>
  <circle cx="27" cy="7" r="1.5" fill="#111"/>
  <circle cx="37" cy="7" r="1.5" fill="#111"/>
</svg>