<svg xmlns="http://www.w3.org/2000/svg" viewBox="0 0 64 64" width="64" height="64">
  <rect x="8" y="10" width="48" height="46" rx="3" fill="#fff" stroke="#2553eb" stroke-width="2"/>
  <rect x="8" y="10" width="48" height="10" rx="3" fill="#ff0000"/>
  <g fill="#146321">
    <rect x="12" y="24" width="5" height="4"/>
    <rect x="20" y="24" width="5" height="4"/>
    <rect x="28" y="24" width="5" height="4"/>
    <rect x="36" y="24" width="5" height="4"/>
    <rect x="44" y="24" width="5" height="4"/>
    <rect x="12" y="32" width="5" height="4"/>
    <rect x="20" y="32" width="5" height="4"/>
    <rect x="28" y="32" width="5" height="4"/>
    <rect x="36" y="32" width="5" height="4"/>
    <rect x="44" y="32" width="5" height="4"/>
    <rect x="12" y="40" width="5" height="4"/>
    <rect x="20" y="40" width="5" height="4"/>
    <rect x="28" y="40" width="5" height="4"/>
    <rect x="36" y="40" width="5" height="4"/>
    <rect x="44" y="40" width="5" height="4"/>
    <rect x="12" y="48" width="5" height="4"/>
    <rect x="20" y="48" width="5" height="4"/>
    <rect x="28" y="48" width="5" height="4"/>
    <rect x="36" y="48" width="5" height="4"/>
    <rect x="44" y="48" width="5" height="4"/>
  </g>
</svg>